<svg width="26" height="26" viewBox="0 0 26 26" fill="none" xmlns="http://www.w3.org/2000/svg">
<path fill-rule="evenodd" clip-rule="evenodd" d="M12.0697 0.545147C5.48608 1.02252 -0.0379716 6.75177 0.544703 14.0136C1.07023 20.5639 6.79183 26.0374 14.0438 25.4472C20.5084 24.9211 26.0368 19.2161 25.4494 12.0054C24.9156 5.45172 19.2703 0.0230719 12.0697 0.545147ZM14.1732 8.67162C14.1639 9.50877 14.1494 10.4482 14.1352 11.3268C14.711 11.3244 16.726 11.243 17.1284 11.3852C17.1926 11.6657 16.6874 13.9086 16.5828 14.5557L14.0696 14.5708L14.0686 22.4196L10.7222 22.4185C10.7179 22.4202 10.6348 14.5458 10.6344 14.5452L7.75453 14.5324L7.79923 11.4139L10.6597 11.4055L10.6852 8.48915C10.903 4.70855 13.7102 4.7597 17.1895 4.95447L17.2048 7.58817C16.1534 7.62552 14.1673 7.45205 14.1732 8.67162Z" fill="#F1F1F1"/>
</svg>
