<svg width="17" height="17" viewBox="0 0 17 17" fill="none" xmlns="http://www.w3.org/2000/svg">
<path d="M14.217 12.655C14.217 13.6688 13.3876 14.4982 12.3738 14.4982C11.3601 14.4982 10.5306 13.6688 10.5306 12.655C10.5306 12.44 10.5614 12.2249 10.6535 12.0406H7.98084C8.04228 12.2249 8.10376 12.44 8.10376 12.655C8.10376 13.6688 7.27428 14.4982 6.26052 14.4982C5.24676 14.4982 4.41732 13.6688 4.41732 12.655C4.41732 12.1328 4.63236 11.672 4.97028 11.334C4.17156 10.7504 3.55716 9.85949 3.43428 8.84573L2.697 3.96124C2.66628 3.65404 2.3898 3.43901 2.0826 3.43901H1.3146C0.976676 3.43901 0.700195 3.16252 0.700195 2.8246C0.700195 2.48669 0.976676 2.21021 1.3146 2.21021H2.0826C3.0042 2.21021 3.7722 2.88605 3.89508 3.80765L4.60164 8.66141C4.78596 9.89021 5.83044 10.8118 7.08996 10.8118H11.7594V7.7398C11.7594 6.38812 10.6535 5.28221 9.30176 5.28221H4.0794C3.74148 5.28221 3.465 5.00573 3.465 4.66781C3.465 4.32989 3.74148 4.05341 4.0794 4.05341H9.30176C11.3293 4.05341 12.9882 5.71228 12.9882 7.7398V10.9347C13.6948 11.1804 14.217 11.8563 14.217 12.655ZM6.8442 12.655C6.8442 12.3171 6.56772 12.0406 6.2298 12.0406C5.89188 12.0406 5.6154 12.3171 5.6154 12.655C5.6154 12.9929 5.89188 13.2694 6.2298 13.2694C6.56772 13.2694 6.8442 12.9929 6.8442 12.655ZM12.9882 12.655C12.9882 12.3171 12.7118 12.0406 12.3738 12.0406C12.0359 12.0406 11.7594 12.3171 11.7594 12.655C11.7594 12.9929 12.0359 13.2694 12.3738 13.2694C12.7118 13.2694 12.9882 12.9929 12.9882 12.655Z" fill="#961914"/>
</svg>
